  0
SECTION
  2
HEADER
  9
$ACADVER
  1
AC1009
  9
$INSUNITS
 70
     5
 9
$MEASUREMENT
 70
    1
  0
ENDSEC
  0
SECTION
  2
TABLES
  0
TABLE
  2
LAYER
 70
     8
  0
LAYER
  2
0
 62
     7
 70
0
  6
CONTINUOUS
  0
LAYER
  2
1
 62
     1
 70
0
  6
CONTINUOUS
  0
LAYER
  2
2
 62
     2
 70
0
  6
CONTINUOUS
  0
LAYER
  2
3
 62
     3
 70
0
  6
CONTINUOUS
  0
LAYER
  2
4
 62
     4
 70
0
  6
CONTINUOUS
  0
LAYER
  2
5
 62
     5
 70
0
  6
CONTINUOUS
  0
LAYER
  2
6
 62
     6
 70
0
  6
CONTINUOUS
  0
LAYER
  2
7
 62
     7
 70
0
  6
CONTINUOUS
  0
ENDTAB
  0
TABLE
  2
STYLE
 70
     1
  0
STYLE
 70
     0
  2
STANDARD
  3
TXT
 40
0.00
 41
1.00
 42
1.00
 50
0.00
 71
     0
  0
ENDTAB
  0
ENDSEC
  0
SECTION
  2
BLOCKS
  0
BLOCK
  8
0
  2
EPAD
 70
0
 10
0.0
 20
0.0
  0
POLYLINE
  8
0
 66
1
 70
1
 40
0.5
 41
0.5
  0
VERTEX
  8
0
 10
-0.25
 20
0.0
 42
1.0
  0
VERTEX
  8
0
 10
0.25
 20
0.0
 42
1.0
  0
SEQEND
  8
0
  0
ENDBLK
  8
0
  0
BLOCK
  8
0
  2
RPAD
 70
0
 10
0.0
 20
0.0
  0
TRACE
  8
0
 10
-0.5
 20
-0.5
 11
-0.5
 21
0.5
 12
0.5
 22
-0.5
 13
0.5
 23
0.5
  0
ENDBLK
  8
0
  0
ENDSEC
0
SECTION
2
ENTITIES
0
INSERT
8
1
2
RPAD
10
-8.680000
20
3.800000
41
0.114300
42
0.144780
50
180.000000
0
INSERT
8
1
2
RPAD
10
-8.500000
20
3.800000
41
0.114300
42
0.144780
50
180.000000
0
INSERT
8
1
2
RPAD
10
-9.100000
20
4.600000
41
0.093980
42
0.144780
50
-90.000000
0
INSERT
8
1
2
RPAD
10
-9.100000
20
4.800000
41
0.093980
42
0.144780
50
-90.000000
0
INSERT
8
1
2
RPAD
10
-7.305000
20
4.570000
41
0.060960
42
0.093980
50
-180.000000
0
INSERT
8
1
2
RPAD
10
-7.495000
20
4.570000
41
0.060960
42
0.093980
50
-180.000000
0
INSERT
8
1
2
RPAD
10
-7.400000
20
4.800000
41
0.060960
42
0.093980
50
-180.000000
0
INSERT
8
1
2
RPAD
10
-7.200000
20
4.200000
41
0.093980
42
0.144780
50
-90.000000
0
INSERT
8
1
2
RPAD
10
-7.200000
20
4.400000
41
0.093980
42
0.144780
50
-90.000000
0
INSERT
8
1
2
RPAD
10
-7.905000
20
4.570000
41
0.060960
42
0.093980
50
0.000000
0
INSERT
8
1
2
RPAD
10
-8.095000
20
4.570000
41
0.060960
42
0.093980
50
0.000000
0
INSERT
8
1
2
RPAD
10
-8.000000
20
4.800000
41
0.060960
42
0.093980
50
0.000000
0
INSERT
8
1
2
RPAD
10
-7.800000
20
4.200000
41
0.093980
42
0.144780
50
-270.000000
0
INSERT
8
1
2
RPAD
10
-7.800000
20
4.400000
41
0.093980
42
0.144780
50
-270.000000
0
POLYLINE
8
2
66
1
40
0.010160
41
0.010160
0
VERTEX
8
2
10
-9.700000
20
3.400000
0
VERTEX
8
2
10
-6.900000
20
3.400000
0
VERTEX
8
2
10
-6.900000
20
5.400000
0
VERTEX
8
2
10
-9.700000
20
5.400000
0
VERTEX
8
2
10
-9.700000
20
3.400000
0
SEQEND
8
2
0
POLYLINE
8
3
66
1
70
1
40
0
41
0
0
VERTEX
8
3
10
-8.756000
20
4.056000
0
VERTEX
8
3
10
-8.644000
20
4.056000
0
VERTEX
8
3
10
-8.644000
20
3.944000
0
VERTEX
8
3
10
-8.756000
20
3.944000
0
VERTEX
8
3
10
-8.756000
20
4.056000
0
SEQEND
8
3
0
INSERT
8
3
2
EPAD
10
-8.450000
20
4.000000
41
0.112000
42
0.112000
0
INSERT
8
3
2
EPAD
10
-8.600000
20
5.100000
41
0.203200
42
0.203200
0
INSERT
8
3
2
EPAD
10
-8.100000
20
3.700000
41
0.203200
42
0.203200
0
INSERT
8
3
2
EPAD
10
-9.000000
20
3.700000
41
0.203200
42
0.203200
0
POLYLINE
8
3
66
1
70
1
40
0
41
0
0
VERTEX
8
3
10
-8.737150
20
3.727610
0
VERTEX
8
3
10
-8.622850
20
3.727610
0
VERTEX
8
3
10
-8.622850
20
3.872390
0
VERTEX
8
3
10
-8.737150
20
3.872390
0
VERTEX
8
3
10
-8.737150
20
3.727610
0
SEQEND
8
3
0
POLYLINE
8
3
66
1
70
1
40
0
41
0
0
VERTEX
8
3
10
-8.557150
20
3.727610
0
VERTEX
8
3
10
-8.442850
20
3.727610
0
VERTEX
8
3
10
-8.442850
20
3.872390
0
VERTEX
8
3
10
-8.557150
20
3.872390
0
VERTEX
8
3
10
-8.557150
20
3.727610
0
SEQEND
8
3
0
INSERT
8
3
2
EPAD
10
-8.000000
20
5.100000
41
0.203200
42
0.203200
0
INSERT
8
3
2
EPAD
10
-7.400000
20
5.100000
41
0.203200
42
0.203200
0
INSERT
8
3
2
EPAD
10
-9.100000
20
5.100000
41
0.203200
42
0.203200
0
POLYLINE
8
3
66
1
70
1
40
0
41
0
0
VERTEX
8
3
10
-9.027610
20
4.553010
0
VERTEX
8
3
10
-9.027610
20
4.646990
0
VERTEX
8
3
10
-9.172390
20
4.646990
0
VERTEX
8
3
10
-9.172390
20
4.553010
0
VERTEX
8
3
10
-9.027610
20
4.553010
0
SEQEND
8
3
0
POLYLINE
8
3
66
1
70
1
40
0
41
0
0
VERTEX
8
3
10
-9.027610
20
4.753010
0
VERTEX
8
3
10
-9.027610
20
4.846990
0
VERTEX
8
3
10
-9.172390
20
4.846990
0
VERTEX
8
3
10
-9.172390
20
4.753010
0
VERTEX
8
3
10
-9.027610
20
4.753010
0
SEQEND
8
3
0
INSERT
8
3
2
EPAD
10
-7.800000
20
4.000000
41
0.203200
42
0.203200
0
INSERT
8
3
2
EPAD
10
-7.200000
20
4.000000
41
0.203200
42
0.203200
0
POLYLINE
8
3
66
1
70
1
40
0
41
0
0
VERTEX
8
3
10
-7.335480
20
4.523010
0
VERTEX
8
3
10
-7.274520
20
4.523010
0
VERTEX
8
3
10
-7.274520
20
4.616990
0
VERTEX
8
3
10
-7.335480
20
4.616990
0
VERTEX
8
3
10
-7.335480
20
4.523010
0
SEQEND
8
3
0
POLYLINE
8
3
66
1
70
1
40
0
41
0
0
VERTEX
8
3
10
-7.525480
20
4.523010
0
VERTEX
8
3
10
-7.464520
20
4.523010
0
VERTEX
8
3
10
-7.464520
20
4.616990
0
VERTEX
8
3
10
-7.525480
20
4.616990
0
VERTEX
8
3
10
-7.525480
20
4.523010
0
SEQEND
8
3
0
POLYLINE
8
3
66
1
70
1
40
0
41
0
0
VERTEX
8
3
10
-7.430480
20
4.753010
0
VERTEX
8
3
10
-7.369520
20
4.753010
0
VERTEX
8
3
10
-7.369520
20
4.846990
0
VERTEX
8
3
10
-7.430480
20
4.846990
0
VERTEX
8
3
10
-7.430480
20
4.753010
0
SEQEND
8
3
0
POLYLINE
8
3
66
1
70
1
40
0
41
0
0
VERTEX
8
3
10
-7.127610
20
4.153010
0
VERTEX
8
3
10
-7.127610
20
4.246990
0
VERTEX
8
3
10
-7.272390
20
4.246990
0
VERTEX
8
3
10
-7.272390
20
4.153010
0
VERTEX
8
3
10
-7.127610
20
4.153010
0
SEQEND
8
3
0
POLYLINE
8
3
66
1
70
1
40
0
41
0
0
VERTEX
8
3
10
-7.127610
20
4.353010
0
VERTEX
8
3
10
-7.127610
20
4.446990
0
VERTEX
8
3
10
-7.272390
20
4.446990
0
VERTEX
8
3
10
-7.272390
20
4.353010
0
VERTEX
8
3
10
-7.127610
20
4.353010
0
SEQEND
8
3
0
POLYLINE
8
3
66
1
70
1
40
0
41
0
0
VERTEX
8
3
10
-7.935480
20
4.523010
0
VERTEX
8
3
10
-7.874520
20
4.523010
0
VERTEX
8
3
10
-7.874520
20
4.616990
0
VERTEX
8
3
10
-7.935480
20
4.616990
0
VERTEX
8
3
10
-7.935480
20
4.523010
0
SEQEND
8
3
0
POLYLINE
8
3
66
1
70
1
40
0
41
0
0
VERTEX
8
3
10
-8.125480
20
4.523010
0
VERTEX
8
3
10
-8.064520
20
4.523010
0
VERTEX
8
3
10
-8.064520
20
4.616990
0
VERTEX
8
3
10
-8.125480
20
4.616990
0
VERTEX
8
3
10
-8.125480
20
4.523010
0
SEQEND
8
3
0
POLYLINE
8
3
66
1
70
1
40
0
41
0
0
VERTEX
8
3
10
-8.030480
20
4.753010
0
VERTEX
8
3
10
-7.969520
20
4.753010
0
VERTEX
8
3
10
-7.969520
20
4.846990
0
VERTEX
8
3
10
-8.030480
20
4.846990
0
VERTEX
8
3
10
-8.030480
20
4.753010
0
SEQEND
8
3
0
POLYLINE
8
3
66
1
70
1
40
0
41
0
0
VERTEX
8
3
10
-7.727610
20
4.153010
0
VERTEX
8
3
10
-7.727610
20
4.246990
0
VERTEX
8
3
10
-7.872390
20
4.246990
0
VERTEX
8
3
10
-7.872390
20
4.153010
0
VERTEX
8
3
10
-7.727610
20
4.153010
0
SEQEND
8
3
0
POLYLINE
8
3
66
1
70
1
40
0
41
0
0
VERTEX
8
3
10
-7.727610
20
4.353010
0
VERTEX
8
3
10
-7.727610
20
4.446990
0
VERTEX
8
3
10
-7.872390
20
4.446990
0
VERTEX
8
3
10
-7.872390
20
4.353010
0
VERTEX
8
3
10
-7.727610
20
4.353010
0
SEQEND
8
3
0
INSERT
8
3
2
EPAD
10
-9.400000
20
3.984000
41
0.203200
42
0.203200
0
INSERT
8
3
2
EPAD
10
-9.400000
20
5.000000
41
0.203200
42
0.203200
0
POLYLINE
8
3
66
1
70
1
40
0
41
0
0
VERTEX
8
3
10
-8.955600
20
4.714300
0
VERTEX
8
3
10
-8.752400
20
4.714300
0
VERTEX
8
3
10
-8.749841
20
4.714042
0
VERTEX
8
3
10
-8.747457
20
4.713302
0
VERTEX
8
3
10
-8.745300
20
4.712131
0
VERTEX
8
3
10
-8.743420
20
4.710580
0
VERTEX
8
3
10
-8.741869
20
4.708700
0
VERTEX
8
3
10
-8.740698
20
4.706543
0
VERTEX
8
3
10
-8.739958
20
4.704159
0
VERTEX
8
3
10
-8.739700
20
4.701600
0
VERTEX
8
3
10
-8.739700
20
4.498400
0
VERTEX
8
3
10
-8.739958
20
4.495841
0
VERTEX
8
3
10
-8.740698
20
4.493457
0
VERTEX
8
3
10
-8.741869
20
4.491300
0
VERTEX
8
3
10
-8.743420
20
4.489420
0
VERTEX
8
3
10
-8.745300
20
4.487869
0
VERTEX
8
3
10
-8.747457
20
4.486698
0
VERTEX
8
3
10
-8.749841
20
4.485958
0
VERTEX
8
3
10
-8.752400
20
4.485700
0
VERTEX
8
3
10
-8.955600
20
4.485700
0
VERTEX
8
3
10
-8.958159
20
4.485958
0
VERTEX
8
3
10
-8.960543
20
4.486698
0
VERTEX
8
3
10
-8.962700
20
4.487869
0
VERTEX
8
3
10
-8.964580
20
4.489420
0
VERTEX
8
3
10
-8.966131
20
4.491300
0
VERTEX
8
3
10
-8.967302
20
4.493457
0
VERTEX
8
3
10
-8.968042
20
4.495841
0
VERTEX
8
3
10
-8.968300
20
4.498400
0
VERTEX
8
3
10
-8.968300
20
4.701600
0
VERTEX
8
3
10
-8.968042
20
4.704159
0
VERTEX
8
3
10
-8.967302
20
4.706543
0
VERTEX
8
3
10
-8.966131
20
4.708700
0
VERTEX
8
3
10
-8.964580
20
4.710580
0
VERTEX
8
3
10
-8.962700
20
4.712131
0
VERTEX
8
3
10
-8.960543
20
4.713302
0
VERTEX
8
3
10
-8.958159
20
4.714042
0
VERTEX
8
3
10
-8.955600
20
4.714300
0
SEQEND
8
3
0
POLYLINE
8
3
66
1
70
1
40
0
41
0
0
VERTEX
8
3
10
-8.701600
20
4.714300
0
VERTEX
8
3
10
-8.498400
20
4.714300
0
VERTEX
8
3
10
-8.495841
20
4.714042
0
VERTEX
8
3
10
-8.493457
20
4.713302
0
VERTEX
8
3
10
-8.491300
20
4.712131
0
VERTEX
8
3
10
-8.489420
20
4.710580
0
VERTEX
8
3
10
-8.487869
20
4.708700
0
VERTEX
8
3
10
-8.486698
20
4.706543
0
VERTEX
8
3
10
-8.485958
20
4.704159
0
VERTEX
8
3
10
-8.485700
20
4.701600
0
VERTEX
8
3
10
-8.485700
20
4.498400
0
VERTEX
8
3
10
-8.485958
20
4.495841
0
VERTEX
8
3
10
-8.486698
20
4.493457
0
VERTEX
8
3
10
-8.487869
20
4.491300
0
VERTEX
8
3
10
-8.489420
20
4.489420
0
VERTEX
8
3
10
-8.491300
20
4.487869
0
VERTEX
8
3
10
-8.493457
20
4.486698
0
VERTEX
8
3
10
-8.495841
20
4.485958
0
VERTEX
8
3
10
-8.498400
20
4.485700
0
VERTEX
8
3
10
-8.701600
20
4.485700
0
VERTEX
8
3
10
-8.704159
20
4.485958
0
VERTEX
8
3
10
-8.706543
20
4.486698
0
VERTEX
8
3
10
-8.708700
20
4.487869
0
VERTEX
8
3
10
-8.710580
20
4.489420
0
VERTEX
8
3
10
-8.712131
20
4.491300
0
VERTEX
8
3
10
-8.713302
20
4.493457
0
VERTEX
8
3
10
-8.714042
20
4.495841
0
VERTEX
8
3
10
-8.714300
20
4.498400
0
VERTEX
8
3
10
-8.714300
20
4.701600
0
VERTEX
8
3
10
-8.714042
20
4.704159
0
VERTEX
8
3
10
-8.713302
20
4.706543
0
VERTEX
8
3
10
-8.712131
20
4.708700
0
VERTEX
8
3
10
-8.710580
20
4.710580
0
VERTEX
8
3
10
-8.708700
20
4.712131
0
VERTEX
8
3
10
-8.706543
20
4.713302
0
VERTEX
8
3
10
-8.704159
20
4.714042
0
VERTEX
8
3
10
-8.701600
20
4.714300
0
SEQEND
8
3
0
POLYLINE
8
2
66
1
40
0.010160
41
0.010160
0
VERTEX
8
2
10
-9.700000
20
3.400000
0
VERTEX
8
2
10
-6.900000
20
3.400000
0
VERTEX
8
2
10
-6.900000
20
5.400000
0
VERTEX
8
2
10
-9.700000
20
5.400000
0
VERTEX
8
2
10
-9.700000
20
3.400000
0
SEQEND
8
2
0
POLYLINE
8
4
66
1
40
0.063500
41
0.063500
0
VERTEX
8
4
10
-8.600000
20
5.100000
0
VERTEX
8
4
10
-8.600000
20
4.600000
0
SEQEND
8
4
0
POLYLINE
8
4
66
1
40
0.063500
41
0.063500
0
VERTEX
8
4
10
-8.450000
20
4.000000
0
VERTEX
8
4
10
-8.450000
20
3.850000
0
VERTEX
8
4
10
-8.500000
20
3.800000
0
SEQEND
8
4
0
POLYLINE
8
4
66
1
40
0.050800
41
0.050800
0
VERTEX
8
4
10
-7.905000
20
4.570000
0
VERTEX
8
4
10
-7.800000
20
4.465000
0
VERTEX
8
4
10
-7.800000
20
4.400000
0
SEQEND
8
4
0
POLYLINE
8
4
66
1
40
0.050800
41
0.050800
0
VERTEX
8
4
10
-7.305000
20
4.570000
0
VERTEX
8
4
10
-7.200000
20
4.465000
0
VERTEX
8
4
10
-7.200000
20
4.400000
0
SEQEND
8
4
0
POLYLINE
8
4
66
1
40
0.050800
41
0.050800
0
VERTEX
8
4
10
-8.000000
20
5.100000
0
VERTEX
8
4
10
-8.000000
20
4.800000
0
SEQEND
8
4
0
POLYLINE
8
4
66
1
40
0.050800
41
0.050800
0
VERTEX
8
4
10
-7.400000
20
5.100000
0
VERTEX
8
4
10
-7.400000
20
4.800000
0
SEQEND
8
4
0
POLYLINE
8
4
66
1
40
0.050800
41
0.050800
0
VERTEX
8
4
10
-7.800000
20
4.200000
0
VERTEX
8
4
10
-7.800000
20
4.000000
0
SEQEND
8
4
0
POLYLINE
8
4
66
1
40
0.050800
41
0.050800
0
VERTEX
8
4
10
-8.680000
20
3.800000
0
VERTEX
8
4
10
-8.900000
20
3.800000
0
VERTEX
8
4
10
-9.000000
20
3.700000
0
SEQEND
8
4
0
POLYLINE
8
4
66
1
40
0.050800
41
0.050800
0
VERTEX
8
4
10
-8.700000
20
4.000000
0
VERTEX
8
4
10
-8.700000
20
3.820000
0
VERTEX
8
4
10
-8.680000
20
3.800000
0
SEQEND
8
4
0
POLYLINE
8
4
66
1
40
0.063500
41
0.063500
0
VERTEX
8
4
10
-7.495000
20
4.570000
0
VERTEX
8
4
10
-7.495000
20
3.872802
0
VERTEX
8
4
10
-7.667802
20
3.700000
0
VERTEX
8
4
10
-8.100000
20
3.700000
0
VERTEX
8
4
10
-8.200000
20
3.800000
0
VERTEX
8
4
10
-8.450000
20
4.050000
0
SEQEND
8
4
0
POLYLINE
8
4
66
1
40
0.063500
41
0.063500
0
VERTEX
8
4
10
-8.500000
20
3.800000
0
VERTEX
8
4
10
-8.200000
20
3.800000
0
SEQEND
8
4
0
POLYLINE
8
4
66
1
40
0.050800
41
0.050800
0
VERTEX
8
4
10
-7.200000
20
4.200000
0
VERTEX
8
4
10
-7.200000
20
4.000000
0
SEQEND
8
4
0
POLYLINE
8
4
66
1
40
0.050800
41
0.050800
0
VERTEX
8
4
10
-9.100000
20
4.800000
0
VERTEX
8
4
10
-9.100000
20
5.100000
0
VERTEX
8
4
10
-9.300000
20
5.100000
0
VERTEX
8
4
10
-9.400000
20
5.000000
0
SEQEND
8
4
0
POLYLINE
8
4
66
1
40
0.050800
41
0.050800
0
VERTEX
8
4
10
-9.400000
20
3.984000
0
VERTEX
8
4
10
-9.116000
20
3.700000
0
VERTEX
8
4
10
-9.000000
20
3.700000
0
SEQEND
8
4
0
POLYLINE
8
4
66
1
40
0.050800
41
0.050800
0
VERTEX
8
4
10
-8.854000
20
4.600000
0
VERTEX
8
4
10
-8.854000
20
4.486972
0
VERTEX
8
4
10
-9.000000
20
4.340972
0
SEQEND
8
4
0
POLYLINE
8
4
66
1
40
0.050800
41
0.050800
0
VERTEX
8
4
10
-9.000000
20
3.700000
0
VERTEX
8
4
10
-9.000000
20
4.340972
0
SEQEND
8
4
0
POLYLINE
8
4
66
1
40
0.050800
41
0.050800
0
VERTEX
8
4
10
-9.100000
20
4.600000
0
VERTEX
8
4
10
-9.100000
20
4.440972
0
VERTEX
8
4
10
-9.000000
20
4.340972
0
SEQEND
8
4
0
POLYLINE
8
4
66
1
40
0.063500
41
0.063500
0
VERTEX
8
4
10
-8.095000
20
4.570000
0
VERTEX
8
4
10
-8.095000
20
4.432113
0
VERTEX
8
4
10
-8.450000
20
4.077113
0
SEQEND
8
4
0
POLYLINE
8
4
66
1
40
0.063500
41
0.063500
0
VERTEX
8
4
10
-8.450000
20
4.000000
0
VERTEX
8
4
10
-8.450000
20
4.050000
0
VERTEX
8
4
10
-8.450000
20
4.077113
0
VERTEX
8
4
10
-8.450000
20
4.450000
0
VERTEX
8
4
10
-8.600000
20
4.600000
0
SEQEND
8
4
0
INSERT
8
5
2
RPAD
10
-8.700000
20
4.000000
41
0.112000
42
0.112000
50
0.000000
0
CIRCLE
8
0
10
-8.700000
20
4.000000
40
0.025400
0
INSERT
8
5
2
EPAD
10
-8.450000
20
4.000000
41
0.112000
42
0.112000
0
CIRCLE
8
0
10
-8.450000
20
4.000000
40
0.075000
0
INSERT
8
5
2
EPAD
10
-8.600000
20
5.100000
41
0.177800
42
0.177800
0
CIRCLE
8
0
10
-8.600000
20
5.100000
40
0.063500
0
INSERT
8
5
2
EPAD
10
-8.100000
20
3.700000
41
0.177800
42
0.177800
0
CIRCLE
8
0
10
-8.100000
20
3.700000
40
0.063500
0
INSERT
8
5
2
EPAD
10
-9.000000
20
3.700000
41
0.177800
42
0.177800
0
CIRCLE
8
0
10
-9.000000
20
3.700000
40
0.063500
0
INSERT
8
4
2
RPAD
10
-8.680000
20
3.800000
41
0.114300
42
0.144780
50
180.000000
0
INSERT
8
4
2
RPAD
10
-8.500000
20
3.800000
41
0.114300
42
0.144780
50
180.000000
0
INSERT
8
5
2
EPAD
10
-8.000000
20
5.100000
41
0.177800
42
0.177800
0
CIRCLE
8
0
10
-8.000000
20
5.100000
40
0.063500
0
INSERT
8
5
2
EPAD
10
-7.400000
20
5.100000
41
0.177800
42
0.177800
0
CIRCLE
8
0
10
-7.400000
20
5.100000
40
0.063500
0
INSERT
8
5
2
EPAD
10
-9.100000
20
5.100000
41
0.177800
42
0.177800
0
CIRCLE
8
0
10
-9.100000
20
5.100000
40
0.063500
0
INSERT
8
4
2
RPAD
10
-9.100000
20
4.600000
41
0.093980
42
0.144780
50
-90.000000
0
INSERT
8
4
2
RPAD
10
-9.100000
20
4.800000
41
0.093980
42
0.144780
50
-90.000000
0
INSERT
8
5
2
EPAD
10
-7.800000
20
4.000000
41
0.177800
42
0.177800
0
CIRCLE
8
0
10
-7.800000
20
4.000000
40
0.063500
0
INSERT
8
5
2
EPAD
10
-7.200000
20
4.000000
41
0.177800
42
0.177800
0
CIRCLE
8
0
10
-7.200000
20
4.000000
40
0.063500
0
INSERT
8
4
2
RPAD
10
-7.305000
20
4.570000
41
0.060960
42
0.093980
50
-180.000000
0
INSERT
8
4
2
RPAD
10
-7.495000
20
4.570000
41
0.060960
42
0.093980
50
-180.000000
0
INSERT
8
4
2
RPAD
10
-7.400000
20
4.800000
41
0.060960
42
0.093980
50
-180.000000
0
INSERT
8
4
2
RPAD
10
-7.200000
20
4.200000
41
0.093980
42
0.144780
50
-90.000000
0
INSERT
8
4
2
RPAD
10
-7.200000
20
4.400000
41
0.093980
42
0.144780
50
-90.000000
0
INSERT
8
4
2
RPAD
10
-7.905000
20
4.570000
41
0.060960
42
0.093980
50
0.000000
0
INSERT
8
4
2
RPAD
10
-8.095000
20
4.570000
41
0.060960
42
0.093980
50
0.000000
0
INSERT
8
4
2
RPAD
10
-8.000000
20
4.800000
41
0.060960
42
0.093980
50
0.000000
0
INSERT
8
4
2
RPAD
10
-7.800000
20
4.200000
41
0.093980
42
0.144780
50
-270.000000
0
INSERT
8
4
2
RPAD
10
-7.800000
20
4.400000
41
0.093980
42
0.144780
50
-270.000000
0
INSERT
8
5
2
EPAD
10
-9.400000
20
3.984000
41
0.177800
42
0.177800
0
CIRCLE
8
0
10
-9.400000
20
3.984000
40
0.063500
0
INSERT
8
5
2
EPAD
10
-9.400000
20
5.000000
41
0.177800
42
0.177800
0
CIRCLE
8
0
10
-9.400000
20
5.000000
40
0.063500
0
INSERT
8
5
2
RPAD
10
-8.854000
20
4.600000
41
0.203200
42
0.203200
50
0.000000
0
CIRCLE
8
0
10
-8.854000
20
4.600000
40
0.063500
0
INSERT
8
5
2
RPAD
10
-8.600000
20
4.600000
41
0.203200
42
0.203200
50
0.000000
0
CIRCLE
8
0
10
-8.600000
20
4.600000
40
0.063500
0
POLYLINE
8
2
66
1
40
0.010160
41
0.010160
0
VERTEX
8
2
10
-9.700000
20
3.400000
0
VERTEX
8
2
10
-6.900000
20
3.400000
0
VERTEX
8
2
10
-6.900000
20
5.400000
0
VERTEX
8
2
10
-9.700000
20
5.400000
0
VERTEX
8
2
10
-9.700000
20
3.400000
0
SEQEND
8
2
0
ENDSEC
0
EOF

